<svg width="47" height="50" viewBox="0 0 47 50" fill="none" xmlns="http://www.w3.org/2000/svg">
<path fill-rule="evenodd" clip-rule="evenodd" d="M34.3088 29.2017L27.3399 33.4391C26.1094 32.9891 22.5718 31.4816 19.337 28.0642C16.301 24.8568 15.0326 21.3144 14.6611 20.077L18.6815 12.6997L9.93315 0L9.01028 0.574984C5.26673 2.89492 2.51705 5.79484 0.36605 9.70473L0.228802 10.1022C-0.987495 16.9595 2.72529 27.0693 9.46698 35.259C16.7813 44.1438 26.2727 49.1487 35.7002 49.1487C36.1261 49.1487 36.5521 49.1412 36.978 49.1187L37.2596 49.1062L37.5033 48.9612C41.2942 46.7162 44.0486 43.8063 46.1712 39.8014L46.68 38.8389L34.3088 29.2017Z" fill="white"/>
</svg>
