<svg width="1120" height="951" viewBox="0 0 1120 951" fill="none" xmlns="http://www.w3.org/2000/svg">
<mask id="mask0_7_942" style="mask-type:luminance" maskUnits="userSpaceOnUse" x="-77" y="-16" width="433" height="459">
<path d="M-76.0603 131.936L167.781 -15.0247L355.125 295.822L111.284 442.783L-76.0603 131.936Z" fill="white"/>
</mask>
<g mask="url(#mask0_7_942)">
<path d="M204.185 140.719C209.967 137.235 216.467 135.993 222.684 136.734C228.279 137.4 233.939 136.086 238.77 133.174L238.989 133.043C246.291 128.642 248.648 119.152 244.244 111.845L208.256 52.1327L148.539 88.1234C141.237 92.5245 131.747 90.1681 127.346 82.8658L127.211 82.6427C124.3 77.8117 122.985 72.1584 123.652 66.5566C124.393 60.3392 123.147 53.8416 119.665 48.0649C111.221 34.0535 92.8821 29.6781 78.9939 38.4984C65.9112 46.8089 61.6169 64.162 69.3162 77.613C72.7339 83.5864 77.9159 87.8761 83.814 90.2262C88.9747 92.2909 93.2821 96.0375 96.1534 100.802L96.5351 101.435C100.936 108.737 98.587 118.229 91.2802 122.633L31.5678 158.621L67.5827 218.378C71.9837 225.68 69.6301 235.174 62.3277 239.575L62.1047 239.71C57.2736 242.621 51.6176 243.932 46.0185 243.269C39.8011 242.528 33.3009 243.77 27.5241 247.252C13.5127 255.696 9.13999 274.039 17.9576 287.923C26.2681 301.006 43.6257 305.297 57.0749 297.605C63.0456 294.183 67.3381 289.005 69.6854 283.103C71.7502 277.942 75.4968 273.635 80.2609 270.763L80.8944 270.382C88.1967 265.981 97.6883 268.33 102.092 275.637L138.056 335.309L197.768 299.321C205.075 294.917 214.562 297.269 218.966 304.576L219.1 304.799C222.012 309.63 223.323 315.286 222.657 320.881C221.916 327.098 223.161 333.603 226.642 339.379C235.084 353.386 253.427 357.759 267.311 348.941C280.398 340.628 284.695 323.28 276.993 309.824C273.578 303.855 268.393 299.561 262.495 297.211C257.337 295.151 253.027 291.4 250.158 286.64L249.777 286.007C245.373 278.7 247.725 269.213 255.027 264.812L314.744 228.821L278.753 169.104C274.352 161.802 264.861 159.453 257.558 163.854L256.925 164.235C252.165 167.104 248.419 171.411 246.354 176.572C243.999 182.473 239.714 187.652 233.741 191.07C220.29 198.769 202.937 194.475 194.623 181.388C185.806 167.504 190.178 149.161 204.185 140.719Z" fill="#315467"/>
</g>
</svg>
