<svg width="720" height="639" viewBox="0 0 720 639" fill="none" xmlns="http://www.w3.org/2000/svg">
<mask id="mask0_7_948" style="mask-type:luminance" maskUnits="userSpaceOnUse" x="344" y="290" width="394" height="440">
<path d="M470.169 290.891L737.247 389.508L611.531 729.977L344.453 631.36L470.169 290.891Z" fill="white"/>
</mask>
<g mask="url(#mask0_7_948)">
<path d="M638.367 515.222C644.699 517.56 649.729 521.861 653.034 527.178C656.009 531.963 660.57 535.563 665.862 537.517L666.101 537.605C674.099 540.559 682.982 536.471 685.937 528.468L710.087 463.065L644.679 438.914C636.681 435.961 632.593 427.078 635.546 419.08L635.637 418.835C637.59 413.544 641.184 408.986 645.975 406.008C651.293 402.703 655.588 397.671 657.925 391.343C663.591 375.997 655.553 358.943 639.99 353.607C625.328 348.582 609.094 356.068 603.4 370.483C600.87 376.883 600.757 383.609 602.606 389.683C604.218 395.003 603.982 400.707 602.056 405.925L601.799 406.619C598.846 414.617 589.967 418.712 581.964 415.756L516.561 391.607L492.393 457.058C489.44 465.057 480.556 469.149 472.558 466.196L472.313 466.106C467.022 464.152 462.465 460.554 459.486 455.767C456.18 450.449 451.15 446.149 444.823 443.813C429.476 438.146 412.421 446.189 407.087 461.748C402.062 476.409 409.553 492.645 423.961 498.342C430.363 500.867 437.087 500.985 443.163 499.131C448.483 497.52 454.187 497.755 459.405 499.682L460.099 499.938C468.097 502.891 472.191 511.771 469.236 519.774L445.103 585.132L510.505 609.282C518.508 612.237 522.598 621.115 519.643 629.118L519.553 629.362C517.599 634.653 514.001 639.21 509.216 642.185C503.898 645.49 499.596 650.525 497.26 656.852C491.595 672.194 499.638 689.25 515.196 694.584C529.863 699.61 546.095 692.129 551.791 677.71C554.319 671.314 554.434 664.583 552.585 658.509C550.972 653.195 551.209 647.486 553.134 642.272L553.39 641.579C556.345 633.576 565.222 629.486 573.221 632.439L638.628 656.591L662.78 591.183C665.733 583.185 661.638 574.306 653.64 571.352L652.946 571.096C647.733 569.171 642.029 568.936 636.709 570.547C630.631 572.395 623.909 572.283 617.509 569.754C603.095 564.059 595.608 547.826 600.635 533.159C605.969 517.601 623.025 509.557 638.367 515.222Z" fill="#315467"/>
</g>
</svg>
