<svg width="48" height="48" viewBox="0 0 48 48" fill="none" xmlns="http://www.w3.org/2000/svg">
<path d="M23.6125 46.9504L23.5098 46.9492C10.6695 46.799 0.344942 36.2301 0.495126 23.3897L0.496327 23.2871C0.646512 10.4467 11.2154 0.122188 24.0558 0.272372L24.1584 0.273573C36.9988 0.423758 47.3233 10.9927 47.1731 23.833L47.1719 23.9357C47.0218 36.776 36.4529 47.1006 23.6125 46.9504ZM24.0373 1.85233C12.0675 1.71233 2.21629 11.3358 2.07629 23.3055L2.07509 23.4082C1.93509 35.378 11.5585 45.2292 23.5283 45.3692L23.631 45.3704C35.6008 45.5104 45.452 35.887 45.592 23.9172L45.5932 23.8145C45.7332 11.8447 36.1098 1.99354 24.14 1.85353L24.0373 1.85233Z" fill="white"/>
<path d="M37.2201 22.5709C36.6935 15.7195 30.9912 10.2675 23.9919 10.1856C16.5882 10.099 10.4934 16.053 10.4068 23.4535C10.375 26.171 11.1591 28.7132 12.5295 30.8451L10.8129 34.5337C10.3607 35.5034 11.1333 36.5964 12.1979 36.4967L18.4354 35.906C20.0421 36.6137 21.8135 37.0152 23.6779 37.0371C24.1519 37.0426 24.623 37.0228 25.0849 36.9808C25.512 36.94 25.9315 36.8801 26.3464 36.8028C32.4674 35.6387 37.1471 30.2987 37.259 23.845L37.2599 23.7676C37.2646 23.3663 37.2519 22.9632 37.2201 22.5709ZM31.3277 20.6753L28.4582 24.9904L26.9398 27.2734C26.6165 27.7595 25.9468 27.8686 25.4864 27.5092L23.0357 25.6065L21.5245 24.4337C21.4024 24.339 21.2301 24.3402 21.1089 24.4367L17.3319 27.4454C16.7242 27.9298 15.9097 27.1807 16.3391 26.5347L19.0268 22.4956L20.5452 20.211C20.8685 19.725 21.5367 19.6159 21.9986 19.9736L24.3773 21.8218L25.8885 22.993C26.0106 23.0893 26.1829 23.0881 26.3041 22.99L30.3334 19.7646C30.9411 19.2787 31.7588 20.0278 31.3277 20.6753Z" fill="white"/>
</svg>
