<svg width="48" height="48" viewBox="0 0 48 48" fill="none" xmlns="http://www.w3.org/2000/svg">
<path d="M23.8353 46.9504L23.7326 46.9492C10.8922 46.799 0.567697 36.2301 0.717881 23.3898L0.719083 23.287C0.869267 10.4467 11.4382 0.122188 24.2785 0.272372L24.3812 0.273573C37.2216 0.423758 47.5461 10.9926 47.3959 23.833L47.3947 23.9357C47.2445 36.7761 36.6756 47.1006 23.8353 46.9504ZM24.26 1.85233C12.2902 1.71233 2.43905 11.3357 2.29904 23.3055L2.29784 23.4082C2.15784 35.378 11.7813 45.2292 23.751 45.3692L23.8537 45.3704C35.8235 45.5104 45.6747 35.887 45.8147 23.9172L45.8159 23.8145C45.9559 11.8447 36.3325 1.99354 24.3627 1.85354L24.26 1.85233Z" fill="white"/>
<path d="M31.1912 10.3194L17.237 10.1562C13.3819 10.1111 10.209 13.2107 10.1639 17.0658L10.0146 29.8319C9.96949 33.687 13.069 36.8599 16.9241 36.905L30.8784 37.0682C34.7335 37.1133 37.9064 34.0137 37.9515 30.1586L38.1008 17.3926C38.1459 13.5374 35.0463 10.3645 31.1912 10.3194ZM12.6302 17.0946C12.6594 14.5999 14.7134 12.5934 17.2082 12.6225L31.1624 12.7857C33.6571 12.8149 35.6636 14.8689 35.6345 17.3637L35.4851 30.1298C35.456 32.6245 33.402 34.6311 30.9072 34.6019L16.953 34.4387C14.4582 34.4095 12.4517 32.3555 12.4809 29.8607L12.6302 17.0946Z" fill="white"/>
<path d="M23.9817 30.1135C27.5666 30.1555 30.5189 27.273 30.5608 23.6865C30.6028 20.1 27.7203 17.1493 24.1338 17.1073C20.5473 17.0654 17.5965 19.9478 17.5546 23.5344C17.5126 27.1209 20.3952 30.0716 23.9817 30.1135ZM24.1049 19.5752C26.3311 19.6012 28.1205 21.4331 28.0945 23.6592C28.0685 25.8854 26.2367 27.6749 24.0105 27.6488C21.7843 27.6228 19.9949 25.791 20.0209 23.5648C20.0469 21.3386 21.8788 19.5492 24.1049 19.5752Z" fill="white"/>
<path d="M31.2266 18.2414C32.1919 18.2527 32.9879 17.4767 32.9993 16.5097C33.0106 15.5428 32.2345 14.7484 31.2676 14.737C30.3006 14.7257 29.5062 15.5018 29.4949 16.4687C29.4836 17.4357 30.2596 18.2301 31.2266 18.2414Z" fill="white"/>
</svg>
