<svg width="66" height="65" viewBox="0 0 66 65" fill="none" xmlns="http://www.w3.org/2000/svg">
<path d="M15.2053 61.0215C15.1219 61.0319 15.0319 61.0282 14.9449 61.0091C14.6623 60.9397 14.4539 60.7067 14.4129 60.4179L13.5398 54.3258L6.57798 54.7743C6.30149 54.7937 6.03918 54.6471 5.90933 54.4043C5.77948 54.1615 5.80221 53.8648 5.96355 53.6405L24.8339 28.2303C24.9492 28.0765 25.1252 27.9699 25.3165 27.9461C25.5127 27.9217 25.7094 27.9818 25.8547 28.1082L33.8211 34.7266C34.1097 34.9646 34.1623 35.3864 33.9414 35.6929L15.6885 60.7422C15.5695 60.9065 15.3924 61.0032 15.2011 61.0271L15.2053 61.0215ZM8.02231 53.2546L14.1094 52.8602C14.4803 52.8389 14.807 53.1021 14.8577 53.4693L15.5762 58.48L32.4041 35.3862L25.5321 29.6774L8.02231 53.2546Z" fill="#315467"/>
<path d="M39.5539 27.6077C39.3626 27.6315 39.1665 27.5762 39.0163 27.4505L31.067 20.9694C30.7679 20.7277 30.7148 20.301 30.9455 19.9933L40.7597 6.77286C40.8751 6.61904 41.0468 6.51796 41.2331 6.49476C41.4244 6.47094 41.6151 6.52193 41.764 6.63787L43.3413 7.86592C47.3192 10.7724 47.9897 16.3967 44.8716 20.6749L40.0309 27.3192C39.9162 27.4779 39.7397 27.5796 39.549 27.6083L39.5539 27.6077ZM32.4976 20.2981L39.3383 25.8763L43.7366 19.84C46.3915 16.2022 45.8488 11.4436 42.5077 9.01069C42.507 9.00579 42.4966 9.00209 42.4911 8.9978L41.4763 8.2077L32.4976 20.2981Z" fill="#315467"/>
<path d="M57.2966 55.7803C57.1053 55.8042 56.9091 55.7489 56.7541 55.6238L18.6319 23.9422C14.5599 20.5594 13.8305 14.9424 16.9741 11.1492L18.2022 9.5718C18.3182 9.42288 18.4899 9.32179 18.6818 9.30288C18.873 9.27906 19.0643 9.33494 19.2138 9.45577L64.446 46.3582C64.6782 46.5435 64.7676 46.8611 64.6682 47.1424C64.5687 47.4238 64.3087 47.6155 64.0102 47.6178L55.8444 47.758L57.874 54.8169C57.8954 54.869 57.9125 54.9267 57.9198 54.9855C57.968 55.373 57.6933 55.726 57.3064 55.7791L57.3015 55.7797L57.2966 55.7803ZM18.8753 11.0171L18.0851 12.0319C18.0851 12.0319 18.0765 12.0429 18.0722 12.0484C15.4298 15.2264 16.0707 19.9728 19.5367 22.8484L55.8861 53.0523L54.2188 47.2632C54.1576 47.0516 54.1989 46.8224 54.3314 46.6465C54.4633 46.4657 54.6693 46.3604 54.8881 46.358L62.04 46.2345L18.8759 11.0219L18.8753 11.0171Z" fill="#315467"/>
<path d="M41.4231 7.90062C41.2367 7.92383 41.0412 7.87346 40.8806 7.74403C38.0378 5.39352 34.2454 4.49608 29.6056 5.07383C24.9659 5.65157 21.5142 7.45105 19.3298 10.4275C19.0955 10.7456 18.6504 10.811 18.3329 10.5816C18.0198 10.3466 17.9494 9.90212 18.1795 9.58958C20.6025 6.28951 24.3884 4.29403 29.4304 3.66621C34.4723 3.03838 38.627 4.04509 41.7903 6.64955C42.0906 6.90104 42.1363 7.3486 41.8848 7.64887C41.7634 7.79349 41.5997 7.87863 41.4231 7.90062Z" fill="#315467"/>
<path d="M25.1953 15.654C25.0531 15.6717 24.9059 15.6502 24.7723 15.5772C24.4254 15.3913 24.2969 14.959 24.4786 14.6177C25.6714 12.3972 27.6852 11.0506 30.3092 10.7239C32.9331 10.3972 35.2206 11.2081 36.9166 13.0689C37.1819 13.3596 37.1634 13.8101 36.8671 14.0712C36.5764 14.3365 36.1308 14.3172 35.8654 14.0265C34.4697 12.4969 32.6621 11.8604 30.4844 12.1315C28.3068 12.4027 26.7056 13.4637 25.7275 15.2889C25.6189 15.4967 25.4117 15.632 25.191 15.6595L25.1953 15.654Z" fill="#315467"/>
<path d="M22.9916 59.6336L20.1714 59.9848L20.5226 62.805L23.3428 62.4538L22.9916 59.6336Z" fill="#315467"/>
<path d="M27.2242 59.1066L24.4041 59.4578L24.7552 62.2779L27.5754 61.9267L27.2242 59.1066Z" fill="#315467"/>
<path d="M31.4617 58.5789L28.6416 58.9301L28.9928 61.7503L31.8129 61.3991L31.4617 58.5789Z" fill="#315467"/>
<path d="M35.6895 58.0525L32.8694 58.4036L33.2206 61.2238L36.0407 60.8726L35.6895 58.0525Z" fill="#315467"/>
<path d="M39.9271 57.5248L37.1069 57.876L37.4581 60.6961L40.2782 60.345L39.9271 57.5248Z" fill="#315467"/>
<path d="M44.1598 56.9978L41.3397 57.3489L41.6908 60.1691L44.511 59.8179L44.1598 56.9978Z" fill="#315467"/>
<path d="M48.3924 56.4707L45.5723 56.8219L45.9234 59.642L48.7436 59.2909L48.3924 56.4707Z" fill="#315467"/>
<path d="M52.6252 55.9436L49.8051 56.2948L50.1562 59.1149L52.9764 58.7638L52.6252 55.9436Z" fill="#315467"/>
<path d="M58.9058 25.7857L40.5627 28.0698C40.1703 28.1187 39.8173 27.8439 39.7685 27.4515C39.7196 27.0591 39.9993 26.7055 40.3868 26.6573L58.73 24.3732C59.1174 24.325 59.4754 24.5991 59.5243 24.9915C59.5731 25.3839 59.2933 25.7375 58.9058 25.7857Z" fill="#315467"/>
<path d="M25.0395 30.0028L6.69145 32.2875C6.30399 32.3357 5.94613 32.0615 5.89727 31.6692C5.84841 31.2768 6.1281 30.9232 6.51556 30.875L24.8636 28.5902C25.2511 28.542 25.6091 28.8162 25.6579 29.2085C25.7068 29.6009 25.427 29.9545 25.0395 30.0028Z" fill="#315467"/>
</svg>
