<svg width="48" height="48" viewBox="0 0 48 48" fill="none" xmlns="http://www.w3.org/2000/svg">
<path d="M23.3898 46.9504L23.2871 46.9492C10.4467 46.799 0.122186 36.2301 0.272371 23.3898L0.273572 23.2871C0.423756 10.4467 10.9927 0.122188 23.833 0.272372L23.9357 0.273574C36.776 0.423758 47.1006 10.9927 46.9504 23.833L46.9492 23.9357C46.799 36.7761 36.2301 47.1006 23.3898 46.9504ZM23.8145 1.85233C11.8447 1.71233 1.99354 11.3358 1.85353 23.3056L1.85233 23.4082C1.71233 35.378 11.3357 45.2292 23.3055 45.3692L23.4082 45.3704C35.378 45.5104 45.2292 35.887 45.3692 23.9172L45.3704 23.8145C45.5104 11.8448 35.887 1.99354 23.9172 1.85354L23.8145 1.85233Z" fill="white"/>
<path d="M26.8128 18.4145L26.7553 23.3266L32.8319 23.3977L31.7923 30.0033L26.6779 29.9435L26.4996 45.1886C25.4726 45.3188 24.4226 45.3808 23.3577 45.3683C22.1285 45.3539 20.9226 45.2418 19.7493 45.0385L19.9268 29.8645L14.3226 29.799L14.4 23.1821L20.0042 23.2476L20.0745 17.2375C20.1181 13.5088 23.1759 10.5201 26.9062 10.5637L26.9062 10.5669C26.9172 10.567 26.9267 10.564 26.9378 10.5641L32.9827 10.6348L32.9158 16.3574L28.9659 16.3112C27.792 16.2975 26.8281 17.239 26.8144 18.413L26.8128 18.4145Z" fill="white"/>
</svg>
